<!--?xml version="1.0" encoding="utf-8"?-->
<!-- Generator: Adobe Illustrator 24.1.1, SVG Export Plug-In . SVG Version: 6.00 Build 0)  -->
<svg version="1.1" id="_x31_0" xmlns="http://www.w3.org/2000/svg" xmlns:xlink="http://www.w3.org/1999/xlink" x="0px" y="0px" viewBox="0 0 512 512" style="width: 64px; height: 64px; opacity: 1;" xml:space="preserve">
<style type="text/css">
	.st0{fill:#374149;}
</style>
<g>
	<path class="st0" d="M511.49,239.461v-0.023c-2.695-42.184-15.82-81.656-36.722-115.942c-21.703-35.71-51.886-65.699-87.758-87.164
		C353.072,15.965,314.139,3.184,272.572,0.527C267.014,0.172,261.479-0.004,255.979,0C114.572,0.008,0.01,114.633,0.002,256.027
		c-0.004,5.5,0.176,11.043,0.539,16.637v-0.023c2.68,41.996,15.707,81.305,36.457,115.488c21.383,35.336,51.062,65.09,86.344,86.562
		c34.309,20.946,73.816,34.094,116.039,36.79c5.578,0.355,11.109,0.519,16.598,0.519c141.394-0.008,256.011-114.578,256.019-255.977
		C511.998,250.539,511.834,245.016,511.49,239.461z M30.116,256.027c0.011-62.434,25.258-118.812,66.148-159.746
		c40.914-40.902,97.286-66.157,159.715-66.168c4.855,0,9.754,0.16,14.687,0.472c112.27,7.004,203.762,98.489,210.77,210.754
		l-0.008-0.023c0.309,4.93,0.458,9.835,0.458,14.706c-0.012,62.426-25.262,118.794-66.168,159.711
		c-40.93,40.894-97.313,66.141-159.738,66.152c-4.871-0.003-9.774-0.152-14.699-0.461C129.06,474.422,37.604,382.961,30.596,270.738
		v-0.023C30.276,265.774,30.123,260.883,30.116,256.027z"></path>
	<polygon class="st0" points="395.018,195.672 395.049,195.645 395.049,195.645 395.162,195.527 357.479,157.848 234.651,280.618 
		162.01,207.914 124.268,245.598 234.651,355.981 	"></polygon>
</g>
</svg>
